<?xml version="1.0" encoding="utf-8"?>
<!-- Generator: Adobe Illustrator 27.7.0, SVG Export Plug-In . SVG Version: 6.00 Build 0)  -->
<svg version="1.1" id="Layer_1" xmlns="http://www.w3.org/2000/svg" xmlns:xlink="http://www.w3.org/1999/xlink" x="0px" y="0px"
	 viewBox="0 0 100 100" style="enable-background:new 0 0 100 100;" xml:space="preserve">
<style type="text/css">
	.st0{fill-rule:evenodd;clip-rule:evenodd;fill:#FDFDFD;}
	.st1{fill:#3E3A94;}
</style>
<circle id="Oval" class="st0" cx="50" cy="50" r="50"/>
<path id="Path" class="st1" d="M72.5,31.7l3-8c0.4-0.9-0.2-1.7-1.1-1.7H38.1c-0.5,0-0.9,0.3-1.1,0.8l-4.1,10.1c0,0-0.1,0.2-0.1,0.4
	v43.6c0,1.3,0.6,1.9,1.2,1.9h9.6c0.7,0,1.2-0.6,1.2-1.2V57c0-0.7,0.6-1.2,1.2-1.2h16c0.5,0,1-0.3,1.2-0.8l3.2-7.9
	c0.3-0.8-0.2-1.7-1.2-1.7H46.1c-0.7,0-1.2-0.6-1.2-1.2V33.7c0-0.7,0.6-1.2,1.2-1.2h25.2C71.8,32.4,72.3,32.1,72.5,31.7z"/>
</svg>
